<?xml version="1.0" encoding="UTF-8" standalone="no"?>
<!DOCTYPE svg PUBLIC "-//W3C//DTD SVG 1.1//EN" "http://www.w3.org/Graphics/SVG/1.1/DTD/svg11.dtd">
<svg width="100%" height="100%" viewBox="0 0 250 350" version="1.1" xmlns="http://www.w3.org/2000/svg" xmlns:xlink="http://www.w3.org/1999/xlink" xml:space="preserve" xmlns:serif="http://www.serif.com/" style="fill-rule:evenodd;clip-rule:evenodd;stroke-linejoin:round;stroke-miterlimit:2;">
    <g id="Zwerg-m" serif:id="Zwerg m" transform="matrix(0.800899,0,0,0.800899,9.94067,-2.21179)">
        <g id="Beine" transform="matrix(1,0,0,0.808311,-3.0462,109.684)">
            <g transform="matrix(1.10714,0,0,1.17614,-7.11692,-66.0336)">
                <path d="M122.886,263.186C122.886,252.643 115.537,244.084 106.484,244.084C97.431,244.084 90.081,252.643 90.081,263.186L90.081,362.45C90.081,372.993 97.431,381.552 106.484,381.552C115.537,381.552 122.886,372.993 122.886,362.45L122.886,263.186Z"/>
            </g>
            <g transform="matrix(1.10714,0,0,1.22159,65.9976,-83.3769)">
                <path d="M122.886,262.475C122.886,252.325 115.537,244.084 106.484,244.084C97.431,244.084 90.081,252.325 90.081,262.475L90.081,363.161C90.081,373.311 97.431,381.552 106.484,381.552C115.537,381.552 122.886,373.311 122.886,363.161L122.886,262.475Z"/>
            </g>
        </g>
        <g id="Torso" transform="matrix(0.98966,0,0,1.01097,7.01819,27.422)">
            <path d="M194.354,234.323C194.354,206.948 171.651,184.723 143.686,184.723L133.72,184.723C105.755,184.723 83.052,206.948 83.052,234.323L83.052,278.058C83.052,305.433 105.755,327.658 133.72,327.658L143.686,327.658C171.651,327.658 194.354,305.433 194.354,278.058L194.354,234.323Z"/>
        </g>
        <g id="Kopf" transform="matrix(1,0,0,1,-48.2506,16.9648)">
            <circle cx="191.913" cy="148.696" r="43.252"/>
        </g>
        <g transform="matrix(1.2486,0,0,1.2486,-12.4119,2.76164)">
            <path d="M49.685,265.608C49.685,265.608 50.036,221.005 57.972,202.982C73.716,167.227 98.44,169.456 118.947,169.882L82.516,220.514L74.988,269.497C73.915,276.48 67.375,281.277 60.392,280.204C53.41,279.131 48.612,272.591 49.685,265.608Z"/>
        </g>
        <g transform="matrix(-1.2486,0,0,1.2486,301.089,2.76164)">
            <path d="M49.685,265.608C49.685,265.608 50.036,221.005 57.972,202.982C73.716,167.227 98.44,169.456 118.947,169.882L82.516,220.514L74.988,269.497C73.915,276.48 67.375,281.277 60.392,280.204C53.41,279.131 48.612,272.591 49.685,265.608Z"/>
        </g>
        <g transform="matrix(-1.22081,-1.49506e-16,1.52909e-16,-1.2486,230.851,403.297)">
            <path d="M105.172,179.882L37.772,179.882L51.306,147.682L91.639,147.682L105.172,179.882Z"/>
        </g>
        <g transform="matrix(1.2486,0,0,1.2486,-12.4119,2.76164)">
            <path d="M90.528,148.293L97.839,166.084C81.795,167.887 65.708,175.075 54.159,201.303C46.392,218.942 45.581,261.367 45.523,265.284C44.282,274.417 50.604,282.915 59.759,284.322C67.222,285.469 74.304,281.557 77.511,275.147L77.51,318.855C77.51,329.182 85.895,337.566 96.221,337.566C106.548,337.566 114.932,329.182 114.932,318.855L114.932,288.725C117.092,289.049 119.301,289.217 121.55,289.217C121.55,289.217 129.45,289.217 129.45,289.217C131.699,289.217 133.908,289.049 136.068,288.725C136.068,288.725 136.068,318.855 136.068,318.855C136.068,329.182 144.452,337.566 154.779,337.566C165.105,337.566 173.49,329.182 173.49,318.855L173.49,274.984C176.659,281.491 183.797,285.479 191.323,284.322C200.476,282.916 206.797,274.421 205.56,265.282C205.501,261.362 204.69,218.941 196.924,201.303C185.099,174.449 168.529,167.548 152.106,165.962C152.106,165.962 159.015,149.149 159.015,149.149C162.067,143.609 163.807,137.239 163.807,130.466C163.807,109.048 146.418,91.659 125,91.659C103.582,91.659 86.193,109.048 86.193,130.466C86.193,136.892 87.759,142.955 90.528,148.293ZM94.31,146.534C91.788,141.732 90.36,136.264 90.36,130.466C90.36,111.347 105.882,95.825 125,95.825C144.118,95.825 159.64,111.347 159.64,130.466C159.64,136.591 158.047,142.348 155.254,147.34L146.041,169.759C163.018,170.295 180.807,175.04 193.11,202.982C201.046,221.005 201.397,265.608 201.397,265.608C202.47,272.591 197.673,279.131 190.69,280.204C183.708,281.277 177.167,276.48 176.094,269.497L169.61,227.307L169.61,244.89C169.61,246.522 169.513,248.131 169.323,249.713L169.323,318.855C169.323,326.882 162.806,333.399 154.779,333.399C146.752,333.399 140.234,326.882 140.234,318.855L140.234,283.584C136.801,284.54 133.185,285.051 129.45,285.051L121.55,285.051C117.815,285.051 114.199,284.54 110.766,283.584L110.766,318.855C110.766,326.882 104.248,333.399 96.221,333.399C88.194,333.399 81.677,326.882 81.677,318.855L81.677,249.713C81.487,248.131 81.39,246.522 81.39,244.89L81.39,227.843L74.988,269.497C73.915,276.48 67.375,281.277 60.392,280.204C53.41,279.131 48.612,272.591 49.685,265.608C49.685,265.608 50.036,221.005 57.972,202.982C69.994,175.68 87.252,170.525 103.872,169.803L94.31,146.534Z" style="fill:rgb(132,64,64);"/>
        </g>
    </g>
</svg>
