<?xml version="1.0" encoding="UTF-8" standalone="no"?>
<!DOCTYPE svg PUBLIC "-//W3C//DTD SVG 1.1//EN" "http://www.w3.org/Graphics/SVG/1.1/DTD/svg11.dtd">
<svg width="100%" height="100%" viewBox="0 0 250 350" version="1.1" xmlns="http://www.w3.org/2000/svg" xmlns:xlink="http://www.w3.org/1999/xlink" xml:space="preserve" xmlns:serif="http://www.serif.com/" style="fill-rule:evenodd;clip-rule:evenodd;stroke-linejoin:round;stroke-miterlimit:2;">
    <g id="Zwerg-w" serif:id="Zwerg w" transform="matrix(0.800899,0,0,0.800899,9.94067,-2.21179)">
        <g id="Beine" transform="matrix(1,0,0,0.808311,-3.0462,109.684)">
            <g transform="matrix(1.10714,0,0,1.17614,-3.37113,-66.0336)">
                <path d="M122.886,263.186C122.886,252.643 115.537,244.084 106.484,244.084C97.431,244.084 90.081,252.643 90.081,263.186L90.081,362.45C90.081,372.993 97.431,381.552 106.484,381.552C115.537,381.552 122.886,372.993 122.886,362.45L122.886,263.186Z"/>
            </g>
            <g transform="matrix(1.10714,0,0,1.22159,62.2518,-83.3769)">
                <path d="M122.886,262.475C122.886,252.325 115.537,244.084 106.484,244.084C97.431,244.084 90.081,252.325 90.081,262.475L90.081,363.161C90.081,373.311 97.431,381.552 106.484,381.552C115.537,381.552 122.886,373.311 122.886,363.161L122.886,262.475Z"/>
            </g>
        </g>
        <g id="Torso" transform="matrix(0.98966,0,0,1.01097,7.01819,27.422)">
            <path d="M194.354,234.323C194.354,206.948 171.651,184.723 143.686,184.723L133.72,184.723C105.755,184.723 83.052,206.948 83.052,234.323L83.052,278.058C83.052,305.433 105.755,327.658 133.72,327.658L143.686,327.658C171.651,327.658 194.354,305.433 194.354,278.058L194.354,234.323Z"/>
        </g>
        <g id="Kopf" transform="matrix(1,0,0,1,-48.2506,16.9648)">
            <circle cx="191.913" cy="148.696" r="43.252"/>
        </g>
        <g transform="matrix(1.2486,0,0,1.2486,-3.67171,2.76164)">
            <path d="M49.685,265.608C49.685,265.608 50.036,221.005 57.972,202.982C73.716,167.227 98.44,169.456 118.947,169.882L82.516,220.514L74.988,269.497C73.915,276.48 67.375,281.277 60.392,280.204C53.41,279.131 48.612,272.591 49.685,265.608Z"/>
        </g>
        <g transform="matrix(-1.2486,0,0,1.2486,292.349,2.76164)">
            <path d="M49.685,265.608C49.685,265.608 50.036,221.005 57.972,202.982C73.716,167.227 98.44,169.456 118.947,169.882L82.516,220.514L74.988,269.497C73.915,276.48 67.375,281.277 60.392,280.204C53.41,279.131 48.612,272.591 49.685,265.608Z"/>
        </g>
        <g transform="matrix(1.2486,0,0,1.2486,-12.4119,2.76164)">
            <path d="M108.829,165.745C101.4,166.223 93.892,167.657 86.746,171.344C77.247,176.245 68.292,185.104 61.159,201.303C53.392,218.942 52.581,261.367 52.523,265.284C51.282,274.417 57.604,282.915 66.759,284.322C71.906,285.114 76.872,283.498 80.511,280.315L80.51,318.855C80.51,329.182 88.895,337.566 99.221,337.566C109.548,337.566 117.932,329.182 117.932,318.855L117.932,289.071C119.126,289.168 120.332,289.217 121.55,289.217C121.55,289.217 129.45,289.217 129.45,289.217C130.668,289.217 131.874,289.168 133.068,289.071C133.068,289.071 133.068,318.855 133.068,318.855C133.068,329.182 141.452,337.566 151.779,337.566C162.105,337.566 170.49,329.182 170.49,318.855L170.49,280.243C174.135,283.473 179.137,285.119 184.323,284.322C193.476,282.916 199.797,274.421 198.56,265.282C198.501,261.362 197.69,218.941 189.924,201.303C182.78,185.08 173.81,176.219 164.294,171.322C156.853,167.493 149.02,166.104 141.293,165.689C154.581,159.53 163.807,146.067 163.807,130.466C163.807,109.048 146.418,91.659 125,91.659C103.582,91.659 86.193,109.048 86.193,130.466C86.193,146.114 95.475,159.611 108.829,165.745ZM115.98,169.702C117.799,169.449 119.66,169.318 121.55,169.318L129.45,169.318C131.34,169.318 133.201,169.449 135.019,169.702C153.161,169.688 172.83,172.823 186.11,202.982C194.046,221.005 194.397,265.608 194.397,265.608C195.47,272.591 190.673,279.131 183.69,280.204C176.708,281.277 170.167,276.48 169.094,269.497L167.355,258.181C167.042,259.074 166.697,259.953 166.323,260.818L166.323,318.855C166.323,326.882 159.806,333.399 151.779,333.399C143.752,333.399 137.234,326.882 137.234,318.855L137.234,284.295C134.714,284.791 132.112,285.051 129.45,285.051L121.55,285.051C118.888,285.051 116.286,284.791 113.766,284.295L113.766,318.855C113.766,326.882 107.248,333.399 99.221,333.399C91.194,333.399 84.677,326.882 84.677,318.855L84.677,260.818C84.326,260.006 84,259.181 83.702,258.343L81.988,269.497C80.915,276.48 74.375,281.277 67.392,280.204C60.41,279.131 55.612,272.591 56.685,265.608C56.685,265.608 57.036,221.005 64.972,202.982C78.233,172.866 97.866,169.697 115.98,169.702ZM125,95.825C144.118,95.825 159.64,111.347 159.64,130.466C159.64,149.584 144.118,165.106 125,165.106C105.882,165.106 90.36,149.584 90.36,130.466C90.36,111.347 105.882,95.825 125,95.825Z" style="fill:rgb(132,64,64);"/>
        </g>
    </g>
</svg>
