<?xml version="1.0" encoding="UTF-8" standalone="no"?>
<!DOCTYPE svg PUBLIC "-//W3C//DTD SVG 1.1//EN" "http://www.w3.org/Graphics/SVG/1.1/DTD/svg11.dtd">
<svg width="100%" height="100%" viewBox="0 0 250 350" version="1.1" xmlns="http://www.w3.org/2000/svg" xmlns:xlink="http://www.w3.org/1999/xlink" xml:space="preserve" xmlns:serif="http://www.serif.com/" style="fill-rule:evenodd;clip-rule:evenodd;stroke-linecap:round;stroke-linejoin:round;stroke-miterlimit:1.5;">
    <g id="Elf-m" serif:id="Elf m" transform="matrix(0.800899,0,0,0.800899,9.94067,-2.21179)">
        <g id="Beine" transform="matrix(1,0,0,1.1433,-3.0462,-18.5236)">
            <g transform="matrix(1.10144,-0.0982,0.137508,1.17993,17.9473,-57.5043)">
                <path d="M122.886,257.476C122.886,250.085 115.537,244.084 106.484,244.084C97.431,244.084 90.081,250.085 90.081,257.476L90.081,368.16C90.081,375.551 97.431,381.552 106.484,381.552C115.537,381.552 122.886,375.551 122.886,368.16L122.886,257.476Z"/>
            </g>
            <g transform="matrix(-1.10144,-0.0982,-0.137508,1.17993,275.285,-57.5043)">
                <path d="M122.886,257.476C122.886,250.085 115.537,244.084 106.484,244.084C97.431,244.084 90.081,250.085 90.081,257.476L90.081,368.16C90.081,375.551 97.431,381.552 106.484,381.552C115.537,381.552 122.886,375.551 122.886,368.16L122.886,257.476Z"/>
            </g>
        </g>
        <g id="Torso" transform="matrix(1.2486,0,0,1.2486,-12.4119,2.76164)">
            <path d="M121.843,101.318C117.548,101.318 96.372,103.46 96.372,103.46C89.611,103.46 84.122,108.949 84.122,115.71L84.122,140.21C84.122,144.622 87.962,196.318 87.962,196.318C87.962,216.121 102.04,232.199 121.843,232.199L128.901,232.199C148.704,232.199 162.782,216.121 162.782,196.318C162.782,196.318 166.622,144.622 166.622,140.21L166.622,115.71C166.622,108.949 161.133,103.46 154.372,103.46C154.372,103.46 133.196,101.318 128.901,101.318L121.843,101.318Z"/>
        </g>
        <g id="Arme" transform="matrix(1,0,0,1,0,-4.74018)">
            <g transform="matrix(-0.85084,-0.525425,-0.553084,0.895629,408.121,134.366)">
                <path d="M261.136,164.083C261.136,156.507 254.661,150.356 246.686,150.356C238.711,150.356 232.236,156.507 232.236,164.083L232.236,283.469C232.236,291.046 238.711,297.197 246.686,297.197C254.661,297.197 261.136,291.046 261.136,283.469L261.136,164.083Z"/>
            </g>
            <g transform="matrix(0.85084,-0.525425,0.553084,0.895629,-119.975,134.366)">
                <path d="M261.136,164.083C261.136,156.507 254.661,150.356 246.686,150.356C238.711,150.356 232.236,156.507 232.236,164.083L232.236,283.469C232.236,291.046 238.711,297.197 246.686,297.197C254.661,297.197 261.136,291.046 261.136,283.469L261.136,164.083Z"/>
            </g>
        </g>
        <g id="Kopf" transform="matrix(1,0,0,1,-48.2506,-70.6867)">
            <circle cx="191.913" cy="148.696" r="43.252"/>
        </g>
        <g transform="matrix(1.51134e-16,-2.4682,2.16862,1.32789e-16,82.2177,141.05)">
            <path d="M33.206,1.056C24.689,1.844 17.775,13.633 17.775,27.972C17.775,42.311 24.689,54.101 33.206,54.889C28.971,49.986 25.534,39.613 25.534,27.972C25.534,16.332 28.971,5.959 33.206,1.056Z" style="stroke:black;stroke-width:2.24px;"/>
        </g>
        <g transform="matrix(1.2486,0,0,1.2486,-12.4119,2.76164)">
            <path d="M114.429,97.61C107.219,98.195 97.631,99.147 96.149,99.295C89.298,99.383 83.446,103.688 81.079,109.736L81.08,109.734L29.745,192.862C25.181,200.253 27.476,209.96 34.867,214.524C42.258,219.088 51.964,216.793 56.529,209.402C56.529,209.402 81.767,168.533 81.767,168.533C82.705,181.753 83.681,194.933 83.796,196.476C83.811,201.045 84.509,205.433 85.798,209.518C85.798,209.517 74.883,316.593 74.883,316.593C73.836,326.867 81.327,336.058 91.6,337.105C101.874,338.152 111.065,330.662 112.112,320.388C112.112,320.388 120.678,236.349 120.678,236.349C121.065,236.36 121.453,236.366 121.843,236.366L128.901,236.366C128.992,236.366 129.084,236.365 129.175,236.365C129.175,236.365 137.739,320.388 137.739,320.388C138.787,330.662 147.978,338.152 158.251,337.105C168.525,336.058 176.015,326.867 174.968,316.593C174.968,316.593 164.258,211.52 164.258,211.52C165.987,206.88 166.932,201.795 166.949,196.463C167.063,194.937 168.033,181.836 168.969,168.66C168.969,168.659 194.129,209.402 194.129,209.402C198.693,216.793 208.4,219.088 215.791,214.524C223.182,209.96 225.477,200.253 220.913,192.862C220.913,192.862 169.801,110.096 169.801,110.096C167.531,103.862 161.584,99.385 154.587,99.295C153.07,99.143 142.998,98.142 135.732,97.564C149.866,93.5 160.698,81.614 163.239,66.906C170.276,60.986 174.621,53.5 175.275,45.453C175.416,43.718 174.464,42.079 172.888,41.341C171.312,40.604 169.443,40.924 168.202,42.143C166.413,43.901 164.153,45.569 161.514,47.106C156.119,32.158 141.8,21.459 125,21.459C107.98,21.459 93.506,32.44 88.278,47.698L88.278,47.699C85.187,46.003 82.564,44.13 80.543,42.143C79.302,40.924 77.433,40.604 75.857,41.341C74.28,42.079 73.328,43.718 73.469,45.453C74.168,54.047 79.084,62.007 86.987,68.1C89.905,82.311 100.603,93.7 114.429,97.61ZM84.837,111.579C86.534,106.848 91.061,103.46 96.372,103.46C96.372,103.46 117.548,101.318 121.843,101.318L128.901,101.318C133.196,101.318 154.372,103.46 154.372,103.46C159.801,103.46 164.41,107 166.016,111.896L217.367,195.052C220.723,200.486 219.036,207.623 213.601,210.979C208.167,214.335 201.03,212.647 197.674,207.213L165.713,155.456C164.577,172.153 162.782,196.318 162.782,196.318C162.782,201.528 161.808,206.48 160.011,210.949L170.823,317.016C171.637,325.001 165.814,332.146 157.829,332.96C149.843,333.774 142.699,327.951 141.885,319.965L132.915,231.973C131.607,232.122 130.268,232.199 128.901,232.199L121.843,232.199C120.168,232.199 118.534,232.084 116.947,231.861L107.967,319.965C107.153,327.951 100.009,333.774 92.023,332.96C84.037,332.146 78.214,325.001 79.028,317.016L90.033,209.06C88.684,205.098 87.962,200.803 87.962,196.318C87.962,196.318 86.158,172.032 85.023,155.33L52.983,207.213C49.627,212.647 42.491,214.335 37.056,210.979C31.622,207.623 29.934,200.486 33.29,195.052L84.837,111.579ZM90.989,53.664C94.076,37.697 108.139,25.625 125,25.625C141.679,25.625 155.621,37.439 158.906,53.145C163.945,50.816 168.123,48.063 171.122,45.115C170.517,52.561 166.173,59.388 159.36,64.687C157.187,81.72 142.621,94.906 125,94.906C107.742,94.906 93.414,82.258 90.79,65.734C83.172,60.302 78.268,53.061 77.622,45.115C80.847,48.285 85.435,51.229 90.989,53.664Z" style="fill:rgb(93,135,67);"/>
        </g>
    </g>
</svg>
