<?xml version="1.0" encoding="UTF-8" standalone="no"?>
<!DOCTYPE svg PUBLIC "-//W3C//DTD SVG 1.1//EN" "http://www.w3.org/Graphics/SVG/1.1/DTD/svg11.dtd">
<svg width="100%" height="100%" viewBox="0 0 250 350" version="1.1" xmlns="http://www.w3.org/2000/svg" xmlns:xlink="http://www.w3.org/1999/xlink" xml:space="preserve" xmlns:serif="http://www.serif.com/" style="fill-rule:evenodd;clip-rule:evenodd;stroke-linecap:round;stroke-linejoin:round;stroke-miterlimit:1.5;">
    <g id="Elf-w" serif:id="Elf w" transform="matrix(0.800899,0,0,0.800899,9.94067,-2.21179)">
        <g id="Beine" transform="matrix(1,0,0,1.1433,-3.0462,-18.5236)">
            <g transform="matrix(1.10459,-0.0657361,0.0967763,1.24408,28.5913,-85.1507)">
                <path d="M122.886,256.822C122.886,249.792 115.537,244.084 106.484,244.084C97.431,244.084 90.081,249.792 90.081,256.822L90.081,368.814C90.081,375.844 97.431,381.552 106.484,381.552C115.537,381.552 122.886,375.844 122.886,368.814L122.886,256.822Z"/>
            </g>
            <g transform="matrix(-1.10459,-0.0657361,-0.0967763,1.24408,263.698,-85.1507)">
                <path d="M122.886,256.822C122.886,249.792 115.537,244.084 106.484,244.084C97.431,244.084 90.081,249.792 90.081,256.822L90.081,368.814C90.081,375.844 97.431,381.552 106.484,381.552C115.537,381.552 122.886,375.844 122.886,368.814L122.886,256.822Z"/>
            </g>
        </g>
        <g id="Arme" transform="matrix(1,0,0,1,-4.68642,-4.74018)">
            <g transform="matrix(0.85084,-0.525425,0.553084,0.895629,-127.663,137.904)">
                <path d="M261.136,164.083C261.136,156.507 254.661,150.356 246.686,150.356C238.711,150.356 232.236,156.507 232.236,164.083L232.236,283.469C232.236,291.046 238.711,297.197 246.686,297.197C254.661,297.197 261.136,291.046 261.136,283.469L261.136,164.083Z"/>
            </g>
            <g transform="matrix(-0.85084,-0.525425,-0.553084,0.895629,422.48,137.904)">
                <path d="M261.136,164.083C261.136,156.507 254.661,150.356 246.686,150.356C238.711,150.356 232.236,156.507 232.236,164.083L232.236,283.469C232.236,291.046 238.711,297.197 246.686,297.197C254.661,297.197 261.136,291.046 261.136,283.469L261.136,164.083Z"/>
            </g>
        </g>
        <g transform="matrix(1.2486,0,0,1.2486,-12.4119,2.76164)">
            <path d="M97.736,158.916C98.217,150.98 97.279,143.641 93.561,135.433C84.605,115.663 98.645,100.115 124.844,100.089C148.927,100.066 163.24,115.642 156.126,135.433C153.078,143.912 151.607,150.973 151.951,158.916C152.369,168.56 158.633,179.362 158.633,193.298C158.633,217.465 149.011,233.087 124.844,233.087C100.676,233.087 90.055,217.465 90.055,193.298C90.055,179.362 97.152,168.56 97.736,158.916Z"/>
        </g>
        <g>
            <g transform="matrix(1.51134e-16,-2.4682,2.16862,1.32789e-16,82.2177,141.05)">
                <path d="M33.206,1.056C24.689,1.844 17.775,13.633 17.775,27.972C17.775,42.311 24.689,54.101 33.206,54.889C28.971,49.986 25.534,39.613 25.534,27.972C25.534,16.332 28.971,5.959 33.206,1.056Z" style="stroke:black;stroke-width:2.24px;"/>
            </g>
            <g id="Kopf" transform="matrix(1,0,0,1,-49.0344,-70.2705)">
                <circle cx="191.913" cy="148.696" r="43.252"/>
            </g>
        </g>
        <g transform="matrix(1.2486,0,0,1.2486,-12.4119,2.76164)">
            <path d="M111.783,97.313C105.327,98.777 99.974,101.337 95.932,104.679C93.735,105.933 91.804,107.746 90.376,110.059C90.376,110.059 37.492,195.696 37.492,195.696C32.927,203.087 35.222,212.793 42.614,217.357C50.005,221.922 59.711,219.627 64.275,212.235L91.268,168.525C91.003,169.333 90.727,170.153 90.45,170.986C88.789,175.967 87.034,181.346 86.278,187.276C86.101,188.118 85.981,188.982 85.921,189.865C85.921,189.865 77.24,317.441 77.24,317.441C76.539,327.744 84.335,336.678 94.638,337.379C104.941,338.08 113.875,330.285 114.576,319.982C114.576,319.982 120.217,237.065 120.217,237.065C121.705,237.19 123.247,237.253 124.844,237.253C126.234,237.253 127.58,237.205 128.882,237.111C128.882,237.111 134.521,319.982 134.521,319.982C135.222,330.285 144.155,338.08 154.458,337.379C164.761,336.678 172.557,327.744 171.856,317.441C171.856,317.441 163.176,189.865 163.176,189.865C163.055,188.092 162.69,186.393 162.117,184.799C161.325,179.743 159.903,175.124 158.639,170.814L184.218,212.235C188.782,219.627 198.489,221.922 205.88,217.357C213.271,212.793 215.566,203.087 211.002,195.696C211.002,195.696 158.118,110.059 158.118,110.059C156.541,107.505 154.349,105.56 151.851,104.295C147.914,101.115 142.905,98.689 137.031,97.29C150.147,92.76 160.085,81.39 162.574,67.456C169.999,61.452 174.6,53.75 175.275,45.453C175.416,43.718 174.464,42.079 172.888,41.341C171.312,40.604 169.443,40.924 168.202,42.143C166.274,44.038 163.8,45.828 160.894,47.461C155.505,32.502 141.18,21.792 124.372,21.792C107.564,21.792 93.239,32.502 87.85,47.461L87.85,47.461C84.945,45.828 82.47,44.038 80.543,42.143C79.302,40.924 77.433,40.604 75.857,41.341C74.28,42.079 73.328,43.718 73.469,45.453C74.144,53.75 78.745,61.452 86.172,67.457C88.664,81.415 98.633,92.801 111.783,97.313ZM90.39,187.975C91.803,176.55 97.228,167.296 97.736,158.916C97.913,155.99 97.898,153.145 97.621,150.308L60.73,210.046C57.374,215.481 50.237,217.168 44.803,213.812C39.368,210.456 37.681,203.319 41.037,197.885L93.921,112.248C95.034,110.446 96.562,109.056 98.306,108.125C104.206,103.097 113.356,100.101 124.844,100.089C135.214,100.079 143.773,102.961 149.591,107.829C151.583,108.749 153.335,110.244 154.572,112.248L207.456,197.885C210.812,203.319 209.125,210.456 203.691,213.812C198.256,217.168 191.119,215.481 187.763,210.046L152.094,152.286C151.902,154.46 151.853,156.652 151.951,158.916C152.291,166.772 156.511,175.397 158.064,185.857C158.586,187.197 158.916,188.638 159.019,190.147L167.699,317.724C168.244,325.733 162.184,332.677 154.176,333.222C146.167,333.767 139.222,327.707 138.678,319.699L132.742,232.456C130.304,232.872 127.674,233.087 124.844,233.087C121.803,233.087 118.977,232.839 116.361,232.359L110.419,319.699C109.874,327.707 102.929,333.767 94.921,333.222C86.912,332.677 80.852,325.733 81.397,317.724L90.078,190.147C90.128,189.405 90.234,188.679 90.39,187.975ZM90.475,53.436C93.777,37.75 107.709,25.959 124.372,25.959C141.036,25.959 154.967,37.75 158.269,53.436C163.592,51.047 167.997,48.187 171.122,45.115C170.498,52.795 165.896,59.816 158.711,65.181C156.468,82.136 141.938,95.239 124.372,95.239C106.806,95.239 92.276,82.136 90.033,65.181C82.848,59.816 78.247,52.795 77.622,45.115C80.748,48.187 85.153,51.047 90.475,53.436Z" style="fill:rgb(93,135,67);"/>
        </g>
    </g>
</svg>
