<?xml version="1.0" encoding="UTF-8" standalone="no"?>
<!DOCTYPE svg PUBLIC "-//W3C//DTD SVG 1.1//EN" "http://www.w3.org/Graphics/SVG/1.1/DTD/svg11.dtd">
<svg width="100%" height="100%" viewBox="0 0 250 350" version="1.1" xmlns="http://www.w3.org/2000/svg" xmlns:xlink="http://www.w3.org/1999/xlink" xml:space="preserve" xmlns:serif="http://www.serif.com/" style="fill-rule:evenodd;clip-rule:evenodd;stroke-linejoin:round;stroke-miterlimit:2;">
    <g id="Mensch-w" serif:id="Mensch w" transform="matrix(0.800899,0,0,0.800899,9.94067,-2.21179)">
        <g id="Beine" transform="matrix(1,0,0,1.1433,-3.0462,-18.5236)">
            <g transform="matrix(1.10714,0,0,1.21341,-2.62197,-80.255)">
                <path d="M122.886,257.174C122.886,249.949 115.537,244.084 106.484,244.084C97.431,244.084 90.081,249.949 90.081,257.174L90.081,368.462C90.081,375.686 97.431,381.552 106.484,381.552C115.537,381.552 122.886,375.686 122.886,368.462L122.886,257.174Z"/>
            </g>
            <g transform="matrix(1.10714,0,0,1.22159,58.728,-83.3769)">
                <path d="M122.886,257.086C122.886,249.91 115.537,244.084 106.484,244.084C97.431,244.084 90.081,249.91 90.081,257.086L90.081,368.55C90.081,375.726 97.431,381.552 106.484,381.552C115.537,381.552 122.886,375.726 122.886,368.55L122.886,257.086Z"/>
            </g>
        </g>
        <g id="Arme" transform="matrix(1,0,0,1,-4.68642,4)">
            <g transform="matrix(0.85084,-0.525425,0.553084,0.895629,-125.166,137.904)">
                <path d="M261.136,164.083C261.136,156.507 254.661,150.356 246.686,150.356C238.711,150.356 232.236,156.507 232.236,164.083L232.236,283.469C232.236,291.046 238.711,297.197 246.686,297.197C254.661,297.197 261.136,291.046 261.136,283.469L261.136,164.083Z"/>
            </g>
            <g transform="matrix(-0.85084,-0.525425,-0.553084,0.895629,419.983,137.904)">
                <path d="M261.136,164.083C261.136,156.507 254.661,150.356 246.686,150.356C238.711,150.356 232.236,156.507 232.236,164.083L232.236,283.469C232.236,291.046 238.711,297.197 246.686,297.197C254.661,297.197 261.136,291.046 261.136,283.469L261.136,164.083Z"/>
            </g>
        </g>
        <g transform="matrix(1.2486,0,0,1.2486,-12.4119,2.76164)">
            <path d="M97.736,158.916C98.244,150.528 88.561,144.444 88.561,135.433C88.561,115.927 104.819,100.089 124.844,100.089C144.868,100.089 161.126,115.927 161.126,135.433C161.126,144.444 151.587,150.52 151.951,158.916C152.369,168.56 163.633,179.362 163.633,193.298C163.633,217.465 149.011,233.087 124.844,233.087C100.676,233.087 85.055,217.465 85.055,193.298C85.055,179.362 97.152,168.56 97.736,158.916Z"/>
        </g>
        <g id="Kopf" transform="matrix(1,0,0,1,-48.2506,-70.6867)">
            <circle cx="191.913" cy="148.696" r="43.252"/>
        </g>
        <g id="rock" transform="matrix(1.26664,0,0,1.6107,-22.5649,-112.186)">
            <path d="M185.523,288.382L75.737,288.382L92.438,217.694L168.822,217.694L185.523,288.382Z"/>
        </g>
        <g transform="matrix(1.2486,0,0,1.2486,-12.4119,2.76164)">
            <path d="M113.783,97.421C104.266,100.061 96.177,106.023 90.914,113.927C89.958,114.837 89.101,115.883 88.376,117.059C88.376,117.059 35.492,202.696 35.492,202.696C30.927,210.087 33.222,219.793 40.614,224.357C48.005,228.922 57.711,226.627 62.275,219.235L81.305,188.42C81.156,189.297 81.044,190.186 80.974,191.087C80.975,191.079 64.603,279.192 64.603,279.192C64.377,280.41 64.704,281.665 65.496,282.617C66.288,283.569 67.462,284.12 68.7,284.12L81.11,284.12C81.11,284.12 81.11,318.855 81.11,318.855C81.11,329.182 89.495,337.566 99.821,337.566C110.148,337.566 118.532,329.182 118.532,318.855L118.532,284.12C118.532,284.12 130.246,284.12 130.246,284.12C130.246,284.12 130.246,318.855 130.246,318.855C130.246,329.182 138.63,337.566 148.956,337.566C159.283,337.566 167.667,329.182 167.667,318.855C167.667,318.855 167.667,284.12 167.667,284.12C167.667,284.12 180.072,284.12 180.072,284.12C181.31,284.12 182.484,283.569 183.276,282.617C184.067,281.665 184.394,280.41 184.168,279.192L167.649,190.285C167.603,189.817 167.547,189.353 167.48,188.891L186.218,219.235C190.782,226.627 200.489,228.922 207.88,224.357C215.271,219.793 217.566,210.087 213.002,202.696C213.002,202.696 162.412,120.774 162.412,120.774C157.819,109.559 148.094,100.857 136.064,97.467C152.1,92.7 163.807,77.839 163.807,60.266C163.807,38.848 146.418,21.459 125,21.459C103.582,21.459 86.193,38.848 86.193,60.266C86.193,77.784 97.826,92.606 113.783,97.421ZM94.114,116.645C100.537,106.703 111.904,100.089 124.844,100.089C140.247,100.089 153.421,109.46 158.682,122.663L209.456,204.885C212.812,210.319 211.125,217.456 205.691,220.812C200.256,224.168 193.119,222.481 189.763,217.046L152.174,156.177C151.994,157.066 151.91,157.977 151.951,158.916C152.344,167.991 162.341,178.092 163.519,190.865L180.072,279.953L163.501,279.953L163.501,318.855C163.501,326.882 156.984,333.399 148.956,333.399C140.929,333.399 134.412,326.882 134.412,318.855L134.412,279.953L114.366,279.953L114.366,318.855C114.366,326.882 107.848,333.399 99.821,333.399C91.794,333.399 85.277,326.882 85.277,318.855L85.277,279.953L68.7,279.953L85.113,191.614C86.018,178.487 97.175,168.169 97.736,158.916C97.824,157.472 97.609,156.095 97.193,154.761L58.73,217.046C55.374,222.481 48.237,224.168 42.803,220.812C37.368,217.456 35.681,210.319 39.037,204.885L91.921,119.248C92.536,118.252 93.278,117.381 94.114,116.645ZM125,25.625C144.118,25.625 159.64,41.147 159.64,60.266C159.64,79.384 144.118,94.906 125,94.906C105.882,94.906 90.36,79.384 90.36,60.266C90.36,41.147 105.882,25.625 125,25.625Z" style="fill:rgb(141,116,48);"/>
        </g>
    </g>
</svg>
