<?xml version="1.0" encoding="UTF-8" standalone="no"?>
<!DOCTYPE svg PUBLIC "-//W3C//DTD SVG 1.1//EN" "http://www.w3.org/Graphics/SVG/1.1/DTD/svg11.dtd">
<svg width="100%" height="100%" viewBox="0 0 250 350" version="1.1" xmlns="http://www.w3.org/2000/svg" xmlns:xlink="http://www.w3.org/1999/xlink" xml:space="preserve" xmlns:serif="http://www.serif.com/" style="fill-rule:evenodd;clip-rule:evenodd;stroke-linejoin:round;stroke-miterlimit:2;">
    <g id="Mensch-m" serif:id="Mensch m" transform="matrix(0.800899,0,0,0.800899,9.94067,-2.21179)">
        <g id="Beine" transform="matrix(1,0,0,1.1433,-3.0462,-18.5236)">
            <g transform="matrix(1.10714,0,0,1.17614,-2.62197,-66.0336)">
                <path d="M122.886,257.589C122.886,250.135 115.537,244.084 106.484,244.084C97.431,244.084 90.081,250.135 90.081,257.589L90.081,368.047C90.081,375.501 97.431,381.552 106.484,381.552C115.537,381.552 122.886,375.501 122.886,368.047L122.886,257.589Z"/>
            </g>
            <g transform="matrix(1.10714,0,0,1.22159,60.2541,-83.3769)">
                <path d="M122.886,257.086C122.886,249.91 115.537,244.084 106.484,244.084C97.431,244.084 90.081,249.91 90.081,257.086L90.081,368.55C90.081,375.726 97.431,381.552 106.484,381.552C115.537,381.552 122.886,375.726 122.886,368.55L122.886,257.086Z"/>
            </g>
        </g>
        <g id="Torso" transform="matrix(0.88421,0,0,1.1433,21.0201,-81.9262)">
            <path d="M194.354,223.909C194.354,202.281 171.651,184.723 143.686,184.723L133.72,184.723C105.755,184.723 83.052,202.281 83.052,223.909L83.052,288.472C83.052,310.1 105.755,327.658 133.72,327.658L143.686,327.658C171.651,327.658 194.354,310.1 194.354,288.472L194.354,223.909Z"/>
        </g>
        <g id="Arme" transform="matrix(1,0,0,1,0,4)">
            <g transform="matrix(0.85084,-0.525425,0.553084,0.895629,-125.166,137.904)">
                <path d="M261.136,164.083C261.136,156.507 254.661,150.356 246.686,150.356C238.711,150.356 232.236,156.507 232.236,164.083L232.236,283.469C232.236,291.046 238.711,297.197 246.686,297.197C254.661,297.197 261.136,291.046 261.136,283.469L261.136,164.083Z"/>
            </g>
            <g transform="matrix(-0.85084,-0.525425,-0.553084,0.895629,412.491,137.904)">
                <path d="M261.136,164.083C261.136,156.507 254.661,150.356 246.686,150.356C238.711,150.356 232.236,156.507 232.236,164.083L232.236,283.469C232.236,291.046 238.711,297.197 246.686,297.197C254.661,297.197 261.136,291.046 261.136,283.469L261.136,164.083Z"/>
            </g>
        </g>
        <g id="Kopf" transform="matrix(1,0,0,1,-48.2506,-70.6867)">
            <circle cx="191.913" cy="148.696" r="43.252"/>
        </g>
        <g transform="matrix(1.2486,0,0,1.2486,-12.4119,2.76164)">
            <path d="M114.783,97.708C104.383,99.459 95.336,105.225 89.299,113.357C88.086,114.392 87.011,115.63 86.129,117.059C86.129,117.059 33.245,202.696 33.245,202.696C28.681,210.087 30.976,219.793 38.367,224.357C45.758,228.922 55.464,226.627 60.029,219.235C60.029,219.235 81.423,184.59 81.423,184.59C81.423,184.59 81.423,196.318 81.423,196.318C81.423,196.371 81.423,196.425 81.424,196.478C81.218,197.584 81.11,198.729 81.11,199.898L81.11,318.855C81.11,329.182 89.495,337.566 99.821,337.566C110.148,337.566 118.532,329.182 118.532,318.855L118.532,236.259C119.503,236.33 120.483,236.366 121.471,236.366L128.529,236.366C129.517,236.366 130.497,236.33 131.468,236.259C131.468,236.259 131.468,318.855 131.468,318.855C131.468,329.182 139.852,337.566 150.179,337.566C160.505,337.566 168.89,329.182 168.89,318.855C168.89,318.855 168.89,194.176 168.89,194.176C168.89,193.007 168.782,191.863 168.576,190.754C168.577,190.759 168.577,184.59 168.577,184.59C168.577,184.59 189.971,219.235 189.971,219.235C194.536,226.627 204.242,228.922 211.633,224.357C219.024,219.793 221.319,210.087 216.755,202.696C216.755,202.696 163.871,117.059 163.871,117.059C162.988,115.629 161.913,114.391 160.7,113.356C154.665,105.226 145.618,99.459 135.217,97.708C151.686,93.221 163.807,78.148 163.807,60.266C163.807,38.848 146.418,21.459 125,21.459C103.582,21.459 86.193,38.848 86.193,60.266C86.193,78.148 98.314,93.221 114.783,97.708ZM92.351,116.241C98.869,107.205 109.488,101.318 121.471,101.318L128.529,101.318C140.512,101.318 151.131,107.205 157.649,116.241C158.683,117.056 159.594,118.063 160.326,119.248L213.21,204.885C216.566,210.319 214.878,217.456 209.444,220.812C204.009,224.168 196.873,222.481 193.517,217.046L164.41,169.913L164.41,191.166C164.615,192.137 164.723,193.144 164.723,194.176L164.723,318.855C164.723,326.882 158.206,333.399 150.179,333.399C142.152,333.399 135.634,326.882 135.634,318.855L135.634,231.494C133.336,231.957 130.961,232.199 128.529,232.199L121.471,232.199C119.039,232.199 116.664,231.957 114.366,231.494L114.366,318.855C114.366,326.882 107.848,333.399 99.821,333.399C91.794,333.399 85.277,326.882 85.277,318.855L85.277,199.898C85.277,198.858 85.386,197.844 85.594,196.867C85.591,196.686 85.59,196.502 85.59,196.318L85.59,169.913L56.483,217.046C53.127,222.481 45.991,224.168 40.556,220.812C35.122,217.456 33.434,210.319 36.79,204.885L89.674,119.248C90.406,118.063 91.317,117.056 92.351,116.241ZM125,25.625C144.118,25.625 159.64,41.147 159.64,60.266C159.64,79.384 144.118,94.906 125,94.906C105.882,94.906 90.36,79.384 90.36,60.266C90.36,41.147 105.882,25.625 125,25.625Z" style="fill:rgb(141,116,48);"/>
        </g>
    </g>
</svg>
