<?xml version="1.0" encoding="UTF-8" standalone="no"?>
<!DOCTYPE svg PUBLIC "-//W3C//DTD SVG 1.1//EN" "http://www.w3.org/Graphics/SVG/1.1/DTD/svg11.dtd">
<svg width="100%" height="100%" viewBox="0 0 512 512" version="1.1" xmlns="http://www.w3.org/2000/svg" xmlns:xlink="http://www.w3.org/1999/xlink" xml:space="preserve" xmlns:serif="http://www.serif.com/" style="fill-rule:evenodd;clip-rule:evenodd;stroke-linejoin:round;stroke-miterlimit:2;">
    <g transform="matrix(-0.717651,0,0,0.908775,516.96,1.43197)">
        <g transform="matrix(1,0,0,1,-27.4154,13.0905)">
            <path d="M220.936,181.03C216.933,185.834 212.069,189.754 206.686,192.812C218.654,222.802 225.516,253.595 229.719,286.344C225.164,297.581 220.043,308.724 214.219,319.781L214.062,319.845C205.522,300.308 195.989,280.888 182.874,264.095C182.364,264.702 181.839,265.313 181.311,265.907C177.683,269.995 173.659,273.745 169.311,277.157C181.345,293.024 190.359,311.987 199.031,332.095C206.755,375.485 205.417,423.362 196.249,466.907C169.522,471.98 141.051,482.127 107.655,497.407L360.593,497.407C328.165,482.125 300.325,471.947 273.905,466.877C259.955,442.761 252.869,416.747 250.655,390.877C260.347,345.703 279.159,319.185 307.655,291.595C288.379,299.275 270.233,308.905 254.968,323.532C255.67,320.122 256.456,316.766 257.278,313.44C266.754,289.317 281.148,267.62 300.218,248.033C294.434,245.328 288.968,242.039 283.935,238.159C271.225,251.711 260.38,266.287 251.623,281.939C258.779,262.752 264.503,243.517 269.686,224.347C264.243,217.791 259.656,210.414 256.123,202.409C251.956,218.439 247.611,234.355 242.623,250.129C237.986,226.795 231.503,204.049 222.248,181.659C221.81,181.455 221.368,181.249 220.935,181.034L220.936,181.03Z" style="fill:rgb(88,82,78);"/>
        </g>
        <path d="M222.156,20.72C220.733,20.73 219.313,20.785 217.906,20.875C197.822,22.165 180.379,31.217 171.531,47.905L189.157,60.437L159.845,60.437C149.512,55.181 160.257,60.171 148.47,55.157C125.312,42.039 99.683,45.517 81.22,57.969C61.158,71.496 50.486,93.775 60.97,118.062L64.063,125.218L57.593,129.528C36.158,143.888 24.596,159.921 20.469,177.654C16.34,195.39 19.65,215.64 31,238.5L33.47,243.53L30.22,248.094C16.424,267.474 21.34,286.762 36.188,299.124C46.231,307.488 55.668,309.106 65.844,306.531C76.021,303.957 86.994,296.381 96.564,284.657L99.219,281.407L103.374,281.22C131.102,280.02 153.064,269.585 167.344,253.5C181.624,237.415 188.564,215.52 185.062,189.594L184.03,182L191.28,179.5C199.346,176.732 206.01,171.35 210.094,163.97L215.374,154.406L224,161.126C230.39,166.102 246.988,169.523 255.375,167.094L265.655,164.124L267.219,174.719C271.519,204.081 291.612,227.253 317.279,234.874L325.529,237.312L323.779,245.749C320.617,260.739 325.276,271.824 334.219,279.155C343.159,286.487 357.012,289.838 372.969,285.593L379.186,283.937L382.968,289.187C396.481,308.032 412.913,317.274 429.31,318.749C445.708,320.224 462.6,314.004 477.342,299.155C489.966,286.439 493.996,272.645 492.404,258.718C490.814,244.788 483.086,230.598 470.654,219.185L462.154,211.373L471.56,204.685C479.438,199.085 482.3,188.765 480.467,179.185C478.634,169.605 472.94,162.508 464.122,161.405L454.747,160.248L456.027,150.873C461.869,108.306 442.407,73.225 410.685,53.217C378.962,33.207 335.012,28.731 291.903,50.122L285.183,53.466L280.466,47.59C267.002,30.794 246.443,21.822 226.433,20.808C225.003,20.736 223.576,20.704 222.153,20.715L222.156,20.72Z" style="fill:rgb(124,133,99);"/>
    </g>
    <g transform="matrix(-0.717651,0,0,0.908775,357.275,-15.4974)">
        <g transform="matrix(-1,0,0,1,532.005,19.6358)">
            <path d="M220.936,181.03C216.933,185.834 212.069,189.754 206.686,192.812C218.654,222.802 225.516,253.595 229.719,286.344C225.164,297.581 220.043,308.724 214.219,319.781L214.062,319.845C205.522,300.308 195.989,280.888 182.874,264.095C182.364,264.702 181.839,265.313 181.311,265.907C177.683,269.995 173.659,273.745 169.311,277.157C181.345,293.024 190.359,311.987 199.031,332.095C206.755,375.485 205.417,423.362 196.249,466.907C169.522,471.98 141.051,482.127 107.655,497.407L360.593,497.407C328.165,482.125 300.325,471.947 273.905,466.877C259.955,442.761 252.869,416.747 250.655,390.877C260.347,345.703 279.159,319.185 307.655,291.595C288.379,299.275 270.233,308.905 254.968,323.532C255.67,320.122 256.456,316.766 257.278,313.44C266.754,289.317 281.148,267.62 300.218,248.033C294.434,245.328 288.968,242.039 283.935,238.159C271.225,251.711 260.38,266.287 251.623,281.939C258.779,262.752 264.503,243.517 269.686,224.347C264.243,217.791 259.656,210.414 256.123,202.409C251.956,218.439 247.611,234.355 242.623,250.129C237.986,226.795 231.503,204.049 222.248,181.659C221.81,181.455 221.368,181.249 220.935,181.034L220.936,181.03Z" style="fill:rgb(88,82,78);"/>
        </g>
        <path d="M222.156,20.72C220.733,20.73 219.313,20.785 217.906,20.875C197.822,22.165 180.379,31.217 171.531,47.905L189.157,60.437L159.845,60.437C149.512,55.181 160.257,60.171 148.47,55.157C125.312,42.039 99.683,45.517 81.22,57.969C61.158,71.496 50.486,93.775 60.97,118.062L64.063,125.218L57.593,129.528C36.158,143.888 24.596,159.921 20.469,177.654C16.34,195.39 19.65,215.64 31,238.5L33.47,243.53L30.22,248.094C16.424,267.474 21.34,286.762 36.188,299.124C46.231,307.488 55.668,309.106 65.844,306.531C76.021,303.957 86.994,296.381 96.564,284.657L99.219,281.407L103.374,281.22C131.102,280.02 153.064,269.585 167.344,253.5C181.624,237.415 188.564,215.52 185.062,189.594L184.03,182L191.28,179.5C199.346,176.732 206.01,171.35 210.094,163.97L215.374,154.406L224,161.126C230.39,166.102 246.988,169.523 255.375,167.094L265.655,164.124L267.219,174.719C271.519,204.081 291.612,227.253 317.279,234.874L325.529,237.312L323.779,245.749C320.617,260.739 325.276,271.824 334.219,279.155C343.159,286.487 357.012,289.838 372.969,285.593L379.186,283.937L382.968,289.187C396.481,308.032 412.913,317.274 429.31,318.749C445.708,320.224 462.6,314.004 477.342,299.155C489.966,286.439 493.996,272.645 492.404,258.718C490.814,244.788 483.086,230.598 470.654,219.185L462.154,211.373L471.56,204.685C479.438,199.085 482.3,188.765 480.467,179.185C478.634,169.605 472.94,162.508 464.122,161.405L454.747,160.248L456.027,150.873C461.869,108.306 442.407,73.225 410.685,53.217C378.962,33.207 335.012,28.731 291.903,50.122L285.183,53.466L280.466,47.59C267.002,30.794 246.443,21.822 226.433,20.808C225.003,20.736 223.576,20.704 222.153,20.715L222.156,20.72Z" style="fill:rgb(98,103,83);"/>
    </g>
    <g>
        <g transform="matrix(0.853266,0,0,0.907855,17.8523,48.1213)">
            <path d="M220.936,181.03C216.933,185.834 212.069,189.754 206.686,192.812C218.654,222.802 225.516,253.595 229.719,286.344C225.164,297.581 220.043,308.724 214.219,319.781L214.062,319.845C205.522,300.308 195.989,280.888 182.874,264.095C182.364,264.702 181.839,265.313 181.311,265.907C177.683,269.995 173.659,273.745 169.311,277.157C181.345,293.024 190.359,311.987 199.031,332.095C206.755,375.485 205.417,423.362 196.249,466.907C169.522,471.98 141.051,482.127 107.655,497.407L360.593,497.407C328.165,482.125 300.325,471.947 273.905,466.877C259.955,442.761 252.869,416.747 250.655,390.877C260.347,345.703 279.159,319.185 307.655,291.595C288.379,299.275 270.233,308.905 254.968,323.532C255.67,320.122 256.456,316.766 257.278,313.44C266.754,289.317 281.148,267.62 300.218,248.033C294.434,245.328 288.968,242.039 283.935,238.159C271.225,251.711 260.38,266.287 251.623,281.939C258.779,262.752 264.503,243.517 269.686,224.347C264.243,217.791 259.656,210.414 256.123,202.409C251.956,218.439 247.611,234.355 242.623,250.129C237.986,226.795 231.503,204.049 222.248,181.659C221.81,181.455 221.368,181.249 220.935,181.034L220.936,181.03Z" style="fill:rgb(125,115,109);"/>
        </g>
        <g transform="matrix(0.853266,0,0,0.907855,17.8523,48.1213)">
            <path d="M222.156,20.72C220.733,20.73 219.313,20.785 217.906,20.875C197.822,22.165 180.379,31.217 171.531,47.905L189.157,60.437L159.845,60.437C149.512,55.181 160.257,60.171 148.47,55.157C125.312,42.039 99.683,45.517 81.22,57.969C61.158,71.496 50.486,93.775 60.97,118.062L64.063,125.218L57.593,129.528C36.158,143.888 24.596,159.921 20.469,177.654C16.34,195.39 19.65,215.64 31,238.5L33.47,243.53L30.22,248.094C16.424,267.474 21.34,286.762 36.188,299.124C46.231,307.488 55.668,309.106 65.844,306.531C76.021,303.957 86.994,296.381 96.564,284.657L99.219,281.407L103.374,281.22C131.102,280.02 153.064,269.585 167.344,253.5C181.624,237.415 188.564,215.52 185.062,189.594L184.03,182L191.28,179.5C199.346,176.732 206.01,171.35 210.094,163.97L215.374,154.406L224,161.126C230.39,166.102 246.988,169.523 255.375,167.094L265.655,164.124L267.219,174.719C271.519,204.081 291.612,227.253 317.279,234.874L325.529,237.312L323.779,245.749C320.617,260.739 325.276,271.824 334.219,279.155C343.159,286.487 357.012,289.838 372.969,285.593L379.186,283.937L382.968,289.187C396.481,308.032 412.913,317.274 429.31,318.749C445.708,320.224 462.6,314.004 477.342,299.155C489.966,286.439 493.996,272.645 492.404,258.718C490.814,244.788 483.086,230.598 470.654,219.185L462.154,211.373L471.56,204.685C479.438,199.085 482.3,188.765 480.467,179.185C478.634,169.605 472.94,162.508 464.122,161.405L454.747,160.248L456.027,150.873C461.869,108.306 442.407,73.225 410.685,53.217C378.962,33.207 335.012,28.731 291.903,50.122L285.183,53.466L280.466,47.59C267.002,30.794 246.443,21.822 226.433,20.808C225.003,20.736 223.576,20.704 222.153,20.715L222.156,20.72Z" style="fill:url(#_Linear1);"/>
        </g>
    </g>
    <defs>
        <linearGradient id="_Linear1" x1="0" y1="0" x2="1" y2="0" gradientUnits="userSpaceOnUse" gradientTransform="matrix(2.91891e-14,476.694,-476.694,2.91891e-14,18.7628,20.7129)"><stop offset="0" style="stop-color:rgb(190,206,148);stop-opacity:1"/><stop offset="1" style="stop-color:rgb(102,95,39);stop-opacity:1"/></linearGradient>
    </defs>
</svg>
