<?xml version="1.0" encoding="UTF-8" standalone="no"?>
<!DOCTYPE svg PUBLIC "-//W3C//DTD SVG 1.1//EN" "http://www.w3.org/Graphics/SVG/1.1/DTD/svg11.dtd">
<svg width="100%" height="100%" viewBox="0 0 24 24" version="1.1" xmlns="http://www.w3.org/2000/svg" xmlns:xlink="http://www.w3.org/1999/xlink" xml:space="preserve" xmlns:serif="http://www.serif.com/" style="fill-rule:evenodd;clip-rule:evenodd;stroke-linejoin:round;stroke-miterlimit:2;">
    <g transform="matrix(6.12323e-17,1,-1,6.12323e-17,23.9249,0.396783)">
        <g transform="matrix(2.88489,0,0,2.21837,-7.96405,-28.2317)">
            <path d="M5.716,12.847C4.893,12.847 4.225,15.202 4.225,18.102C4.225,21.002 4.893,23.357 5.716,23.357C5.51,22.043 5.343,20.141 5.343,18.102C5.343,16.063 5.51,14.161 5.716,12.847Z" style="fill:rgb(71,62,56);"/>
        </g>
        <g transform="matrix(-2.88489,-3.53297e-16,-2.71672e-16,2.21837,31.0203,-28.2317)">
            <path d="M5.716,12.847C4.893,12.847 4.225,15.202 4.225,18.102C4.225,21.002 4.893,23.357 5.716,23.357C5.51,22.043 5.343,20.141 5.343,18.102C5.343,16.063 5.51,14.161 5.716,12.847Z" style="fill:rgb(71,62,56);"/>
        </g>
        <g transform="matrix(1,0,0,1.84127,-1.76944,-8.96021)">
            <rect x="8.257" y="10.638" width="9.952" height="1.351" style="fill:rgb(71,62,56);"/>
        </g>
        <g transform="matrix(1,0,0,1.84127,-1.76944,-5.91106)">
            <rect x="8.257" y="10.638" width="9.952" height="1.351" style="fill:rgb(71,62,56);"/>
        </g>
        <g transform="matrix(1,0,0,1.84127,-1.76944,-2.86191)">
            <rect x="8.257" y="10.638" width="9.952" height="1.351" style="fill:rgb(71,62,56);"/>
        </g>
        <g transform="matrix(1,0,0,1.84127,-1.76944,-12.0094)">
            <rect x="8.257" y="10.638" width="9.952" height="1.351" style="fill:rgb(71,62,56);"/>
        </g>
        <g transform="matrix(1,0,0,1.84127,-1.76944,-15.0585)">
            <rect x="8.257" y="10.638" width="9.952" height="1.351" style="fill:rgb(71,62,56);"/>
        </g>
        <g transform="matrix(0.844828,0,0,1.84127,0.283997,-18.1077)">
            <rect x="8.257" y="10.638" width="9.952" height="1.351" style="fill:rgb(71,62,56);"/>
        </g>
        <g transform="matrix(0.844828,0,0,1.84127,0.283997,0.187242)">
            <rect x="8.257" y="10.638" width="9.952" height="1.351" style="fill:rgb(71,62,56);"/>
        </g>
    </g>
</svg>
