<?xml version="1.0" encoding="UTF-8" standalone="no"?>
<!DOCTYPE svg PUBLIC "-//W3C//DTD SVG 1.1//EN" "http://www.w3.org/Graphics/SVG/1.1/DTD/svg11.dtd">
<svg width="100%" height="100%" viewBox="0 0 24 24" version="1.1" xmlns="http://www.w3.org/2000/svg" xmlns:xlink="http://www.w3.org/1999/xlink" xml:space="preserve" xmlns:serif="http://www.serif.com/" style="fill-rule:evenodd;clip-rule:evenodd;stroke-linejoin:round;stroke-miterlimit:2;">
    <g transform="matrix(0.906166,0,0,1.07614,1.09383,-0.945845)">
        <path d="M7,22L7,18L0,18L3.85,12L2,12L9,2L12,6.3L15,2L22,12L20.15,12L24,18L17,18L17,22L13,22L13,18L11,18L11,22L7,22ZM16.725,16L20.35,16L16.475,10L18.15,10L15,5.5L13.225,8.025L16,12L14.15,12L16.725,16ZM3.65,16L14.35,16L10.475,10L12.15,10L9,5.5L5.85,10L7.525,10L3.65,16ZM3.65,16L7.525,16L5.85,16L12.15,16L10.475,16L14.35,16L3.65,16ZM20.35,16L14.15,16L16,16L13.225,16L18.15,16L16.475,16L20.35,16ZM13,18L17,18L13,18Z" style="fill:rgb(20,34,29);fill-rule:nonzero;"/>
    </g>
</svg>
