<?xml version="1.0" encoding="UTF-8" standalone="no"?>
<svg
   height="24"
   viewBox="0 -960 960 960"
   width="24"
   version="1.1"
   id="svg142"
   sodipodi:docname="grass.svg"
   inkscape:version="1.2.1 (9c6d41e410, 2022-07-14)"
   xmlns:inkscape="http://www.inkscape.org/namespaces/inkscape"
   xmlns:sodipodi="http://sodipodi.sourceforge.net/DTD/sodipodi-0.dtd"
   xmlns="http://www.w3.org/2000/svg"
   xmlns:svg="http://www.w3.org/2000/svg">
  <defs
     id="defs146" />
  <sodipodi:namedview
     id="namedview144"
     pagecolor="#ffffff"
     bordercolor="#000000"
     borderopacity="0.25"
     inkscape:showpageshadow="2"
     inkscape:pageopacity="0.0"
     inkscape:pagecheckerboard="0"
     inkscape:deskcolor="#d1d1d1"
     showgrid="false"
     inkscape:zoom="32.708333"
     inkscape:cx="12"
     inkscape:cy="12"
     inkscape:window-width="1920"
     inkscape:window-height="1001"
     inkscape:window-x="-9"
     inkscape:window-y="-9"
     inkscape:window-maximized="1"
     inkscape:current-layer="svg142" />
  <path
     d="M80-160v-80h230q-22-85-83.5-146.5T80-470q20-5 39.5-7.5T160-480q134 0 227 93t93 227H80Zm480 0q0-42-9-83.5T525-323q42-71 114.5-114T800-480q21 0 40.5 2.5T880-470q-85 22-146 83.5T650-240h230v80H560Zm-80-239q0-65 24-122t66-100.5q42-43.5 98.5-69.5T789-719q-56 35-98 86t-65 114q-44 21-80.5 51.5T480-399Zm-73-75q-12-9-24-17t-25-16q0-6 1-12.5t1-12.5q0-76-24-144t-68-124q66 27 114.5 77.5T457-606q-18 30-31 63.5T407-474Z"
     id="path140"
     style="fill:#558955;fill-opacity:1" />
</svg>
