<?xml version="1.0" encoding="UTF-8" standalone="no"?>
<!DOCTYPE svg PUBLIC "-//W3C//DTD SVG 1.1//EN" "http://www.w3.org/Graphics/SVG/1.1/DTD/svg11.dtd">
<svg width="100%" height="100%" viewBox="0 0 24 24" version="1.1" xmlns="http://www.w3.org/2000/svg" xmlns:xlink="http://www.w3.org/1999/xlink" xml:space="preserve" xmlns:serif="http://www.serif.com/" style="fill-rule:evenodd;clip-rule:evenodd;stroke-linecap:round;stroke-linejoin:round;stroke-miterlimit:1.5;">
    <rect x="10.453" y="20.006" width="2.579" height="2.978" style="fill:none;stroke:rgb(71,100,112);stroke-width:1px;"/>
    <rect x="10.054" y="15.308" width="3.23" height="2.454" style="fill:none;stroke:rgb(71,100,112);stroke-width:1px;"/>
    <path d="M8.586,7.821L8.355,10.652" style="fill:none;stroke:rgb(71,100,112);stroke-width:1px;"/>
    <path d="M14.794,7.968L14.982,10.715" style="fill:none;stroke:rgb(71,100,112);stroke-width:1px;"/>
    <path d="M9.572,5.326C11.033,4.325 12.465,4.397 13.871,5.41" style="fill:none;stroke:rgb(71,100,112);stroke-width:1px;"/>
    <g transform="matrix(1,0,0,0.982544,0,0.402676)">
        <path d="M15.381,14.295L16.136,23.068L7.202,22.984L7.936,14.658" style="fill:none;stroke:rgb(71,100,112);stroke-width:1.01px;"/>
    </g>
    <path d="M11.816,7.989L5.189,0.733L2.819,3.124L10.495,9.352L2.84,15.329L5.21,17.762L11.774,10.401L18.212,17.573L20.582,15.287L13.095,9.226L20.603,3.124L18.149,0.754L11.816,7.989Z" style="fill:none;stroke:rgb(130,114,88);stroke-width:1.1px;"/>
</svg>
