<?xml version="1.0" encoding="UTF-8" standalone="no"?>
<!DOCTYPE svg PUBLIC "-//W3C//DTD SVG 1.1//EN" "http://www.w3.org/Graphics/SVG/1.1/DTD/svg11.dtd">
<svg width="100%" height="100%" viewBox="0 0 24 24" version="1.1" xmlns="http://www.w3.org/2000/svg" xmlns:xlink="http://www.w3.org/1999/xlink" xml:space="preserve" xmlns:serif="http://www.serif.com/" style="fill-rule:evenodd;clip-rule:evenodd;stroke-linecap:round;stroke-linejoin:round;stroke-miterlimit:1.5;">
    <g>
        <g transform="matrix(1,0,0,1.14017,0,-1.45203)">
            <rect x="4.697" y="10.359" width="13.855" height="10.252" style="fill:none;stroke:rgb(110,110,110);stroke-width:1.12px;"/>
        </g>
        <g transform="matrix(1,0,0,0.037186,0,13.0164)">
            <path d="M18.552,15.485C18.552,12.656 18.467,10.359 18.362,10.359L4.888,10.359C4.782,10.359 4.697,12.656 4.697,15.485C4.697,18.314 4.782,20.611 4.888,20.611L18.362,20.611C18.467,20.611 18.552,18.314 18.552,15.485Z" style="fill:none;stroke:rgb(110,110,110);stroke-width:1.41px;"/>
        </g>
    </g>
    <g>
        <g transform="matrix(1,0,0,1,-0.450402,-0.514745)">
            <rect x="6.327" y="2.831" width="0.622" height="10.402" style="fill:none;stroke:rgb(84,76,71);stroke-width:1.2px;"/>
        </g>
        <g transform="matrix(1,0,0,1,10.4236,-0.514745)">
            <rect x="6.327" y="2.831" width="0.622" height="10.402" style="fill:none;stroke:rgb(84,76,71);stroke-width:1.2px;"/>
        </g>
        <g transform="matrix(1,0,0,1,0,0.978552)">
            <rect x="6.649" y="2.595" width="10.209" height="0.129" style="fill:none;stroke:rgb(84,76,71);stroke-width:1.2px;"/>
        </g>
    </g>
    <g transform="matrix(0.294118,0,0,0.0878661,8.20565,2.27744)">
        <path d="M18.552,15.485C18.552,12.656 17.866,10.359 17.021,10.359L6.228,10.359C5.383,10.359 4.697,12.656 4.697,15.485C4.697,18.314 5.383,20.611 6.228,20.611L17.021,20.611C17.866,20.611 18.552,18.314 18.552,15.485Z" style="fill:none;stroke:rgb(110,110,110);stroke-width:4.61px;"/>
    </g>
    <g transform="matrix(1,0,0,1,-0.19193,0)">
        <rect x="11.502" y="4.281" width="0.629" height="9.227" style="fill:rgb(110,110,110);"/>
    </g>
    <g transform="matrix(6.12323e-17,1,-1,6.12323e-17,22.2499,8.63903)">
        <rect x="11.502" y="4.281" width="0.629" height="9.227" style="fill:rgb(110,110,110);"/>
    </g>
    <g transform="matrix(6.12323e-17,1,-0.809659,4.95773e-17,21.6447,7.14481)">
        <rect x="11.502" y="4.281" width="0.629" height="9.227" style="fill:rgb(110,110,110);"/>
    </g>
    <g transform="matrix(6.12323e-17,1,-0.443182,2.71371e-17,20.1281,5.59816)">
        <rect x="11.502" y="4.281" width="0.629" height="9.227" style="fill:rgb(110,110,110);"/>
    </g>
    <g transform="matrix(6.12323e-17,1,-0.443182,2.71371e-17,11.2414,3.71072)">
        <rect x="11.502" y="4.281" width="0.629" height="9.227" style="fill:rgb(110,110,110);"/>
    </g>
    <g transform="matrix(-1,-1.22465e-16,1.80914e-17,-0.147727,27.6618,22.2677)">
        <rect x="11.502" y="4.281" width="0.629" height="9.227" style="fill:rgb(110,110,110);"/>
    </g>
    <g transform="matrix(-1,-1.22465e-16,1.80914e-17,-0.147727,26.0365,22.4775)">
        <rect x="11.502" y="4.281" width="0.629" height="9.227" style="fill:rgb(110,110,110);"/>
    </g>
    <g transform="matrix(-1,-1.22465e-16,1.80914e-17,-0.147727,24.4374,22.2415)">
        <rect x="11.502" y="4.281" width="0.629" height="9.227" style="fill:rgb(110,110,110);"/>
    </g>
    <g transform="matrix(-1,-1.22465e-16,1.80914e-17,-0.147727,28.7104,21.1143)">
        <rect x="11.502" y="4.281" width="0.629" height="9.227" style="fill:rgb(110,110,110);"/>
    </g>
    <g transform="matrix(-1,-1.22465e-16,1.80914e-17,-0.147727,26.9016,21.0881)">
        <rect x="11.502" y="4.281" width="0.629" height="9.227" style="fill:rgb(110,110,110);"/>
    </g>
    <g transform="matrix(-1,-1.22465e-16,1.80914e-17,-0.147727,25.1714,21.0619)">
        <rect x="11.502" y="4.281" width="0.629" height="9.227" style="fill:rgb(110,110,110);"/>
    </g>
    <g transform="matrix(-1,-1.22465e-16,1.80914e-17,-0.147727,27.8453,19.4628)">
        <rect x="11.502" y="4.281" width="0.629" height="9.227" style="fill:rgb(110,110,110);"/>
    </g>
    <g transform="matrix(-1,-1.22465e-16,1.80914e-17,-0.147727,18.8013,16.1074)">
        <rect x="11.502" y="4.281" width="0.629" height="9.227" style="fill:rgb(110,110,110);"/>
    </g>
</svg>
