<?xml version="1.0" encoding="UTF-8" standalone="no"?>
<!DOCTYPE svg PUBLIC "-//W3C//DTD SVG 1.1//EN" "http://www.w3.org/Graphics/SVG/1.1/DTD/svg11.dtd">
<svg width="100%" height="100%" viewBox="0 0 24 24" version="1.1" xmlns="http://www.w3.org/2000/svg" xmlns:xlink="http://www.w3.org/1999/xlink" xml:space="preserve" xmlns:serif="http://www.serif.com/" style="fill-rule:evenodd;clip-rule:evenodd;stroke-linejoin:round;stroke-miterlimit:2;">
    <path d="M11,21L11,13.025C9.933,13.025 8.908,12.821 7.925,12.413C6.942,12.004 6.075,11.425 5.325,10.675C4.575,9.925 4,9.058 3.6,8.075C3.2,7.092 3,6.067 3,5L3,3L5,3C6.05,3 7.067,3.204 8.05,3.612C9.033,4.021 9.9,4.6 10.65,5.35C11.167,5.867 11.596,6.433 11.938,7.05C12.279,7.667 12.542,8.325 12.725,9.025C12.808,8.908 12.9,8.796 13,8.688C13.1,8.579 13.208,8.467 13.325,8.35C14.075,7.6 14.942,7.021 15.925,6.613C16.908,6.204 17.933,6 19,6L21,6L21,8C21,9.067 20.796,10.092 20.388,11.075C19.979,12.058 19.4,12.925 18.65,13.675C17.9,14.425 17.038,15 16.063,15.4C15.088,15.8 14.067,16 13,16L13,21L11,21ZM11,11C11,10.2 10.846,9.438 10.538,8.712C10.229,7.988 9.792,7.342 9.225,6.775C8.658,6.208 8.013,5.771 7.288,5.462C6.563,5.154 5.8,5 5,5C5,5.8 5.15,6.567 5.45,7.3C5.75,8.033 6.183,8.683 6.75,9.25C7.317,9.817 7.967,10.25 8.7,10.55C9.433,10.85 10.2,11 11,11ZM13,14C13.8,14 14.563,13.85 15.288,13.55C16.012,13.25 16.658,12.817 17.225,12.25C17.792,11.683 18.229,11.033 18.538,10.3C18.846,9.567 19,8.8 19,8C18.2,8 17.433,8.154 16.7,8.462C15.967,8.771 15.317,9.208 14.75,9.775C14.183,10.342 13.75,10.987 13.45,11.712C13.15,12.438 13,13.2 13,14Z" style="fill:rgb(135,130,94);fill-rule:nonzero;"/>
</svg>
