<?xml version="1.0" encoding="UTF-8" standalone="no"?>
<!DOCTYPE svg PUBLIC "-//W3C//DTD SVG 1.1//EN" "http://www.w3.org/Graphics/SVG/1.1/DTD/svg11.dtd">
<svg width="100%" height="100%" viewBox="0 0 24 24" version="1.1" xmlns="http://www.w3.org/2000/svg" xmlns:xlink="http://www.w3.org/1999/xlink" xml:space="preserve" xmlns:serif="http://www.serif.com/" style="fill-rule:evenodd;clip-rule:evenodd;stroke-linejoin:round;stroke-miterlimit:2;">
    <g transform="matrix(1,0,0,1,0,1.46247)">
        <path id="path4284" d="M2,18L2,16C2.633,16 3.104,15.833 3.413,15.5C3.721,15.167 4.367,15 5.35,15C6.333,15 6.979,15.167 7.288,15.5C7.596,15.833 8.05,16 8.65,16C9.283,16 9.754,15.833 10.063,15.5C10.371,15.167 11.017,15 12,15C12.95,15 13.596,15.167 13.938,15.5C14.279,15.833 14.75,16 15.35,16C15.983,16 16.446,15.833 16.738,15.5C17.029,15.167 17.667,15 18.65,15C19.633,15 20.279,15.167 20.588,15.5C20.896,15.833 21.367,16 22,16L22,18C21.05,18 20.404,17.833 20.063,17.5C19.721,17.167 19.25,17 18.65,17C18.05,17 17.596,17.167 17.288,17.5C16.979,17.833 16.333,18 15.35,18C14.4,18 13.754,17.833 13.413,17.5C13.071,17.167 12.6,17 12,17C11.367,17 10.896,17.167 10.588,17.5C10.279,17.833 9.633,18 8.65,18C7.667,18 7.029,17.833 6.738,17.5C6.446,17.167 5.983,17 5.35,17C4.717,17 4.246,17.167 3.938,17.5C3.629,17.833 2.983,18 2,18ZM2,14L2,12C2.633,12 3.104,11.833 3.413,11.5C3.721,11.167 4.367,11 5.35,11C6.3,11 6.938,11.167 7.263,11.5C7.588,11.833 8.05,12 8.65,12C9.283,12 9.754,11.833 10.063,11.5C10.371,11.167 11.017,11 12,11C12.95,11 13.592,11.167 13.925,11.5C14.258,11.833 14.717,12 15.3,12C15.933,12 16.404,11.833 16.713,11.5C17.021,11.167 17.667,11 18.65,11C19.6,11 20.246,11.167 20.588,11.5C20.929,11.833 21.4,12 22,12L22,14C21.017,14 20.363,13.833 20.038,13.5C19.713,13.167 19.25,13 18.65,13C18.05,13 17.596,13.167 17.288,13.5C16.979,13.833 16.333,14 15.35,14C14.4,14 13.754,13.833 13.413,13.5C13.071,13.167 12.6,13 12,13C11.367,13 10.904,13.167 10.613,13.5C10.321,13.833 9.683,14 8.7,14C7.717,14 7.063,13.833 6.738,13.5C6.413,13.167 5.95,13 5.35,13C4.75,13 4.279,13.167 3.938,13.5C3.596,13.833 2.95,14 2,14ZM2,10L2,8C2.633,8 3.104,7.833 3.413,7.5C3.721,7.167 4.367,7 5.35,7C6.3,7 6.938,7.167 7.263,7.5C7.588,7.833 8.05,8 8.65,8C9.283,8 9.754,7.833 10.063,7.5C10.371,7.167 11.017,7 12,7C12.95,7 13.592,7.167 13.925,7.5C14.258,7.833 14.717,8 15.3,8C15.933,8 16.404,7.833 16.713,7.5C17.021,7.167 17.667,7 18.65,7C19.6,7 20.246,7.167 20.588,7.5C20.929,7.833 21.4,8 22,8L22,10C21.017,10 20.363,9.833 20.038,9.5C19.713,9.167 19.25,9 18.65,9C18.05,9 17.596,9.167 17.288,9.5C16.979,9.833 16.333,10 15.35,10C14.4,10 13.754,9.833 13.413,9.5C13.071,9.167 12.6,9 12,9C11.367,9 10.904,9.167 10.613,9.5C10.321,9.833 9.683,10 8.7,10C7.717,10 7.063,9.833 6.738,9.5C6.413,9.167 5.95,9 5.35,9C4.75,9 4.279,9.167 3.938,9.5C3.596,9.833 2.95,10 2,10Z" style="fill:rgb(34,34,64);fill-rule:nonzero;"/>
        <g id="path42841" serif:id="path4284" transform="matrix(1,0,0,1,-0.0214477,-3.92493)">
            <path d="M2,10L2,8C2.633,8 3.104,7.833 3.413,7.5C3.721,7.167 4.367,7 5.35,7C6.3,7 6.938,7.167 7.263,7.5C7.588,7.833 8.05,8 8.65,8C9.283,8 9.754,7.833 10.063,7.5C10.371,7.167 11.017,7 12,7C12.95,7 13.592,7.167 13.925,7.5C14.258,7.833 14.717,8 15.3,8C15.933,8 16.404,7.833 16.713,7.5C17.021,7.167 17.667,7 18.65,7C19.6,7 20.246,7.167 20.588,7.5C20.929,7.833 21.4,8 22,8L22,10C21.017,10 20.363,9.833 20.038,9.5C19.713,9.167 19.25,9 18.65,9C18.05,9 17.596,9.167 17.288,9.5C16.979,9.833 16.333,10 15.35,10C14.4,10 13.754,9.833 13.413,9.5C13.071,9.167 12.6,9 12,9C11.367,9 10.904,9.167 10.613,9.5C10.321,9.833 9.683,10 8.7,10C7.717,10 7.063,9.833 6.738,9.5C6.413,9.167 5.95,9 5.35,9C4.75,9 4.279,9.167 3.938,9.5C3.596,9.833 2.95,10 2,10Z" style="fill:rgb(34,34,64);fill-rule:nonzero;"/>
        </g>
    </g>
</svg>
