<?xml version="1.0" encoding="UTF-8" standalone="no"?>
<svg
   height="24"
   viewBox="0 -960 960 960"
   width="24"
   version="1.1"
   id="svg4286"
   sodipodi:docname="water.svg"
   inkscape:version="1.2.1 (9c6d41e410, 2022-07-14)"
   xmlns:inkscape="http://www.inkscape.org/namespaces/inkscape"
   xmlns:sodipodi="http://sodipodi.sourceforge.net/DTD/sodipodi-0.dtd"
   xmlns="http://www.w3.org/2000/svg"
   xmlns:svg="http://www.w3.org/2000/svg">
  <defs
     id="defs4290" />
  <sodipodi:namedview
     id="namedview4288"
     pagecolor="#ffffff"
     bordercolor="#000000"
     borderopacity="0.25"
     inkscape:showpageshadow="2"
     inkscape:pageopacity="0.0"
     inkscape:pagecheckerboard="0"
     inkscape:deskcolor="#d1d1d1"
     showgrid="false"
     inkscape:zoom="33.916667"
     inkscape:cx="12.014742"
     inkscape:cy="12.014742"
     inkscape:window-width="1920"
     inkscape:window-height="1001"
     inkscape:window-x="-9"
     inkscape:window-y="-9"
     inkscape:window-maximized="1"
     inkscape:current-layer="svg4286" />
  <path
     d="M80-240v-80q38 0 56.5-20t77.5-20q59 0 77.5 20t54.5 20q38 0 56.5-20t77.5-20q57 0 77.5 20t56.5 20q38 0 55.5-20t76.5-20q59 0 77.5 20t56.5 20v80q-57 0-77.5-20T746-280q-36 0-54.5 20T614-240q-57 0-77.5-20T480-280q-38 0-56.5 20T346-240q-59 0-76.5-20T214-280q-38 0-56.5 20T80-240Zm0-160v-80q38 0 56.5-20t77.5-20q57 0 76.5 20t55.5 20q38 0 56.5-20t77.5-20q57 0 77 20t55 20q38 0 56.5-20t77.5-20q57 0 77.5 20t56.5 20v80q-59 0-78.5-20T746-440q-36 0-54.5 20T614-400q-57 0-77.5-20T480-440q-38 0-55.5 20T348-400q-59 0-78.5-20T214-440q-36 0-56.5 20T80-400Zm0-160v-80q38 0 56.5-20t77.5-20q57 0 76.5 20t55.5 20q38 0 56.5-20t77.5-20q57 0 77 20t55 20q38 0 56.5-20t77.5-20q57 0 77.5 20t56.5 20v80q-59 0-78.5-20T746-600q-36 0-54.5 20T614-560q-57 0-77.5-20T480-600q-38 0-55.5 20T348-560q-59 0-78.5-20T214-600q-36 0-56.5 20T80-560Z"
     id="path4284"
     style="fill:#45457f;fill-opacity:1" />
</svg>
