<?xml version="1.0" encoding="UTF-8" standalone="no"?>
<!DOCTYPE svg PUBLIC "-//W3C//DTD SVG 1.1//EN" "http://www.w3.org/Graphics/SVG/1.1/DTD/svg11.dtd">
<svg width="100%" height="100%" viewBox="0 0 24 24" version="1.1" xmlns="http://www.w3.org/2000/svg" xmlns:xlink="http://www.w3.org/1999/xlink" xml:space="preserve" xmlns:serif="http://www.serif.com/" style="fill-rule:evenodd;clip-rule:evenodd;stroke-linejoin:round;stroke-miterlimit:2;">
    <g transform="matrix(1.25499,0,0,1.19763,-3.05987,-2.37151)">
        <path d="M3,19L7.5,12L3,5L15,5C15.333,5 15.646,5.075 15.938,5.225C16.229,5.375 16.467,5.583 16.65,5.85L21,12L16.65,18.15C16.467,18.417 16.229,18.625 15.938,18.775C15.646,18.925 15.333,19 15,19L3,19ZM6.65,17L15,17L18.55,12L15,7L6.65,7L9.9,12L6.65,17ZM9.9,12L6.65,7L9.9,12L6.65,17L9.9,12Z" style="fill:rgb(175,175,175);fill-rule:nonzero;"/>
    </g>
</svg>
