<?xml version="1.0" encoding="UTF-8" standalone="no"?>
<!DOCTYPE svg PUBLIC "-//W3C//DTD SVG 1.1//EN" "http://www.w3.org/Graphics/SVG/1.1/DTD/svg11.dtd">
<svg width="100%" height="100%" viewBox="0 0 512 512" version="1.1" xmlns="http://www.w3.org/2000/svg" xmlns:xlink="http://www.w3.org/1999/xlink" xml:space="preserve" xmlns:serif="http://www.serif.com/" style="fill-rule:evenodd;clip-rule:evenodd;stroke-linecap:round;stroke-linejoin:round;stroke-miterlimit:1.5;">
    <g id="grundform" transform="matrix(1,0,0,1,2.32551,0)">
        <g transform="matrix(1,0,0,1,-0.830094,0)">
            <path d="M377.674,225.174C395.05,223.713 409.034,227.04 403.674,257.674C399.151,283.529 378.753,303.384 348.674,320.674L377.674,225.174Z" style="fill:rgb(190,153,128);"/>
            <g transform="matrix(-1,0,0,1,509.009,0)">
                <path d="M377.674,225.174C395.05,223.713 409.034,227.04 403.674,257.674C399.151,283.529 378.753,303.384 348.674,320.674L377.674,225.174Z" style="fill:rgb(190,153,128);"/>
            </g>
        </g>
        <g transform="matrix(1.09324,0,0,1.11331,-26.1124,-36.0476)">
            <ellipse cx="255.924" cy="227.674" rx="107.25" ry="139" style="fill:rgb(219,201,188);stroke:rgb(190,153,128);stroke-width:20.85px;"/>
        </g>
        <g transform="matrix(1.09324,0,0,1.11331,-26.1124,-36.0476)">
            <clipPath id="_clip1">
                <rect x="148.674" y="71.002" width="214.5" height="145.664"/>
            </clipPath>
            <g clip-path="url(#_clip1)">
                <ellipse cx="255.924" cy="227.674" rx="107.25" ry="139" style="fill:none;stroke:rgb(135,116,103);stroke-width:20.85px;"/>
            </g>
        </g>
        <g transform="matrix(1,0,0,1,-1.25,0)">
            <g transform="matrix(1,0,0,1.18367,-84,-11.6953)">
                <ellipse cx="284.424" cy="198.424" rx="11.25" ry="12.25" style="stroke:rgb(35,51,68);stroke-width:20.99px;"/>
            </g>
            <g transform="matrix(1,0,0,1.18367,25,-10.1953)">
                <ellipse cx="284.424" cy="198.424" rx="11.25" ry="12.25" style="stroke:rgb(35,51,68);stroke-width:20.99px;"/>
            </g>
        </g>
        <g transform="matrix(1,0,0,1,0.5,0)">
            <path d="M226.174,311.174L280.174,310.674" style="fill:none;stroke:black;stroke-width:23px;"/>
        </g>
    </g>
    <g id="men02">
        <g transform="matrix(1.01492,0,0,1.14725,-0.78861,-11.7251)">
            <path d="M125.369,208.186C108.463,181.619 110.857,159.41 131.775,141.383C133.58,111.399 143.999,91.751 170.209,91.053C180.648,58.394 199.27,51.107 221.912,56.279L288.715,56.736C322.952,54.73 338.667,65.758 339.961,86.935C368.52,94.141 376.069,115.112 369.244,145.501C392.349,159.323 393.585,182.767 386.173,210.016C362.36,211.441 346.057,200.549 352.772,151.907C337.111,138.524 328.474,122.586 326.234,104.322C313.471,103.531 297.97,93.979 279.106,73.666L234.724,73.666C216.756,96.975 199.311,108.77 182.563,105.237C178.539,131.426 167.217,144.478 150.992,148.704C157.623,188.531 145.588,203.753 125.369,208.186Z" style="fill:rgb(135,116,103);"/>
        </g>
        <g transform="matrix(1,0,0,1,0,5)">
            <path d="M222.049,269.049C241.846,280.899 262.753,279.783 284.549,268.299" style="fill:none;stroke:rgb(190,153,128);stroke-width:23px;"/>
        </g>
        <g transform="matrix(1,0,0,1,0,-4)">
            <path d="M213.049,350.299C198.212,301.568 216.965,274.799 254.799,274.799C303.763,274.799 304.798,323.365 287.799,347.799C264.593,320.623 240.923,320.143 213.049,350.299Z" style="fill:rgb(135,116,103);"/>
        </g>
    </g>
    <clipPath id="_clip2">
        <rect x="55.78" y="342.101" width="399.107" height="151.437"/>
    </clipPath>
    <g clip-path="url(#_clip2)">
        <path d="M210.854,369.86L207.319,367.045C196.709,358.947 186.85,354.675 178.049,355.799C160.224,359.105 150.625,368.993 152.799,388.299C147.431,389.063 143.417,392.535 140.049,397.299C121.073,398.932 108.526,408.333 105.549,429.299C81.38,441.24 75.585,465.901 69.049,490.049C88.51,513.988 297.454,522.322 406.299,495.049C415.764,489.656 437.501,488.674 437.501,488.674C434.615,483.715 431.753,478.971 428.892,474.447C437.47,457.386 423.828,439.373 397.049,420.799C391.281,401.808 378.402,388.457 353.299,384.799C358.077,365.522 347.358,354.658 328.799,348.049C291.223,359.529 264.293,379.82 246.049,407.299C233.781,392.09 221.937,379.039 210.854,369.86Z" style="fill:rgb(35,76,76);stroke:rgb(49,107,107);stroke-width:23px;"/>
    </g>
    <g transform="matrix(1,0,0,1,172.039,295.121)">
        <circle cx="45.87" cy="125.941" r="16.586" style="fill:rgb(121,121,121);"/>
    </g>
    <g transform="matrix(1,0,0,1,232.894,295.121)">
        <circle cx="45.87" cy="125.941" r="16.586" style="fill:rgb(121,121,121);"/>
    </g>
    <g transform="matrix(1,0,0,1,0,-6)">
        <ellipse cx="247.993" cy="429.183" rx="29.283" ry="6.863" style="fill:rgb(121,121,121);"/>
    </g>
</svg>
