<?xml version="1.0" encoding="UTF-8" standalone="no"?>
<!DOCTYPE svg PUBLIC "-//W3C//DTD SVG 1.1//EN" "http://www.w3.org/Graphics/SVG/1.1/DTD/svg11.dtd">
<svg width="100%" height="100%" viewBox="0 0 24 24" version="1.1" xmlns="http://www.w3.org/2000/svg" xmlns:xlink="http://www.w3.org/1999/xlink" xml:space="preserve" xmlns:serif="http://www.serif.com/" style="fill-rule:evenodd;clip-rule:evenodd;stroke-linejoin:round;stroke-miterlimit:2;">
    <path d="M9,22L9,8.775C7.483,8.375 6.271,7.537 5.363,6.262C4.454,4.988 4,3.567 4,2L6,2C6,3.383 6.446,4.563 7.338,5.537C8.229,6.512 9.367,7 10.75,7L13.25,7C13.75,7 14.217,7.092 14.65,7.275C15.083,7.458 15.475,7.725 15.825,8.075L20.35,12.6L18.95,14L15,10.05L15,22L13,22L13,16L11,16L11,22L9,22ZM12,6C11.45,6 10.979,5.804 10.588,5.412C10.196,5.021 10,4.55 10,4C10,3.45 10.196,2.979 10.588,2.587C10.979,2.196 11.45,2 12,2C12.55,2 13.021,2.196 13.413,2.587C13.804,2.979 14,3.45 14,4C14,4.55 13.804,5.021 13.413,5.412C13.021,5.804 12.55,6 12,6Z" style="fill:rgb(175,175,175);fill-rule:nonzero;"/>
</svg>
