<?xml version="1.0" encoding="UTF-8" standalone="no"?>
<!DOCTYPE svg PUBLIC "-//W3C//DTD SVG 1.1//EN" "http://www.w3.org/Graphics/SVG/1.1/DTD/svg11.dtd">
<svg width="100%" height="100%" viewBox="0 0 250 350" version="1.1" xmlns="http://www.w3.org/2000/svg" xmlns:xlink="http://www.w3.org/1999/xlink" xml:space="preserve" xmlns:serif="http://www.serif.com/" style="fill-rule:evenodd;clip-rule:evenodd;stroke-linecap:round;stroke-linejoin:round;stroke-miterlimit:1.5;">
    <g id="Ebene1">
    </g>
    <g transform="matrix(0.93161,0,0,0.931334,8.5488,16.3067)">
        <path d="M84.815,98.633C91.916,86.023 105.433,87.161 120.927,87.161L129.073,87.161C144.567,87.161 158.084,86.023 165.185,98.633L231.199,195.51C234.953,201.59 233.065,209.574 226.985,213.329C220.906,217.083 212.921,215.195 209.167,209.115L159.039,149.712C159.039,149.712 163.867,184.134 164.864,201.465C166.597,231.602 169.44,330.53 169.44,330.53C169.44,339.511 162.149,346.802 153.169,346.802C144.188,346.802 141.473,339.511 141.473,330.53L133.465,232.844C130.931,233.33 131.748,233.584 129.073,233.584L120.927,233.584C118.252,233.584 119.069,233.33 116.535,232.844L108.527,330.53C108.527,339.511 105.812,346.802 96.831,346.802C87.851,346.802 80.56,339.511 80.56,330.53C80.56,330.53 83.761,231.322 85.136,201.465C85.907,184.747 88.814,151.391 88.814,151.391L40.833,209.115C37.079,215.195 29.094,217.083 23.015,213.329C16.935,209.574 15.047,201.59 18.801,195.51L84.815,98.633Z" style="fill:none;stroke:rgb(50,50,50);stroke-width:13.42px;"/>
    </g>
    <g transform="matrix(0.787531,0,0,0.791147,-26.1376,-72.8098)">
        <circle cx="191.913" cy="148.696" r="43.252" style="fill:none;stroke:rgb(50,50,50);stroke-width:15.84px;"/>
    </g>
</svg>
