<?xml version="1.0" encoding="UTF-8" standalone="no"?>
<!DOCTYPE svg PUBLIC "-//W3C//DTD SVG 1.1//EN" "http://www.w3.org/Graphics/SVG/1.1/DTD/svg11.dtd">
<svg width="100%" height="100%" viewBox="0 0 24 24" version="1.1" xmlns="http://www.w3.org/2000/svg" xmlns:xlink="http://www.w3.org/1999/xlink" xml:space="preserve" xmlns:serif="http://www.serif.com/" style="fill-rule:evenodd;clip-rule:evenodd;stroke-linejoin:round;stroke-miterlimit:2;">
    <path d="M8.55,20L15.45,20L16.45,16L7.55,16L8.55,20ZM8.55,22C8.083,22 7.675,21.858 7.325,21.575C6.975,21.292 6.742,20.925 6.625,20.475L5.5,16L18.5,16L17.375,20.475C17.258,20.925 17.025,21.292 16.675,21.575C16.325,21.858 15.917,22 15.45,22L8.55,22ZM5,14L19,14L19,12L5,12L5,14ZM12,8C12,6.333 12.583,4.917 13.75,3.75C14.917,2.583 16.333,2 18,2C18,3.5 17.525,4.8 16.575,5.9C15.625,7 14.433,7.667 13,7.9L13,10L21,10L21,14C21,14.55 20.804,15.021 20.413,15.413C20.021,15.804 19.55,16 19,16L5,16C4.45,16 3.979,15.804 3.588,15.413C3.196,15.021 3,14.55 3,14L3,10L11,10L11,7.9C9.567,7.667 8.375,7 7.425,5.9C6.475,4.8 6,3.5 6,2C7.667,2 9.083,2.583 10.25,3.75C11.417,4.917 12,6.333 12,8Z" style="fill:rgb(115,135,103);fill-rule:nonzero;"/>
</svg>
