<?xml version="1.0" encoding="UTF-8" standalone="no"?>
<!DOCTYPE svg PUBLIC "-//W3C//DTD SVG 1.1//EN" "http://www.w3.org/Graphics/SVG/1.1/DTD/svg11.dtd">
<svg width="100%" height="100%" viewBox="0 0 512 512" version="1.1" xmlns="http://www.w3.org/2000/svg" xmlns:xlink="http://www.w3.org/1999/xlink" xml:space="preserve" xmlns:serif="http://www.serif.com/" style="fill-rule:evenodd;clip-rule:evenodd;stroke-linejoin:round;stroke-miterlimit:1.5;">
    <g transform="matrix(1,0,0,1,2.32551,0)">
        <path d="M148.741,413.437C122.494,426.942 93.61,447.188 71.125,485.826M208.674,363.674L207.674,406.174C199.854,405.608 192.064,404.544 185.16,404.809" style="fill:none;stroke:rgb(190,153,128);stroke-width:23px;"/>
        <g transform="matrix(-1,0,0,1,507.349,0)">
            <path d="M146.277,413.169C115.224,424.978 94.411,450.465 72.174,488.674M208.674,363.674L207.674,406.174C196.857,405.391 186.057,405.407 176.949,406.209" style="fill:none;stroke:rgb(190,153,128);stroke-width:23px;"/>
        </g>
    </g>
    <g transform="matrix(1,0,0,1,2.32551,0)">
        <path d="M148.741,413.437C122.494,426.942 93.61,447.188 71.125,485.826M208.674,363.674L207.674,406.174C199.854,405.608 192.064,404.544 185.16,404.809" style="fill:none;stroke:rgb(30,46,30);stroke-width:23px;"/>
        <g transform="matrix(-1,0,0,1,507.349,0)">
            <path d="M146.277,413.169C115.224,424.978 94.411,450.465 72.174,488.674M208.674,363.674L207.674,406.174C196.857,405.391 186.057,405.407 176.949,406.209" style="fill:none;stroke:rgb(30,46,30);stroke-width:23px;"/>
        </g>
    </g>
    <g id="grundform" transform="matrix(1,0,0,1,2.32551,0)">
        <g transform="matrix(1,0,0,1,-0.830094,0)">
            <path d="M377.674,225.174C395.05,223.713 409.034,227.04 403.674,257.674C399.151,283.529 378.753,303.384 348.674,320.674L377.674,225.174Z" style="fill:rgb(190,153,128);"/>
            <g transform="matrix(-1,0,0,1,509.009,0)">
                <path d="M377.674,225.174C395.05,223.713 409.034,227.04 403.674,257.674C399.151,283.529 378.753,303.384 348.674,320.674L377.674,225.174Z" style="fill:rgb(190,153,128);"/>
            </g>
        </g>
        <g transform="matrix(1.09324,0,0,1.11331,-26.1124,-36.0476)">
            <ellipse cx="255.924" cy="227.674" rx="107.25" ry="139" style="fill:rgb(219,201,188);stroke:rgb(190,153,128);stroke-width:20.85px;stroke-linecap:round;"/>
        </g>
        <g transform="matrix(1,0,0,1,-1.25,0)">
            <g transform="matrix(1,0,0,1.18367,-84,-11.6953)">
                <ellipse cx="284.424" cy="198.424" rx="11.25" ry="12.25" style="fill:rgb(64,55,105);stroke:rgb(42,37,69);stroke-width:20.99px;stroke-linecap:round;"/>
            </g>
            <g transform="matrix(1,0,0,1.18367,25,-10.1953)">
                <ellipse cx="284.424" cy="198.424" rx="11.25" ry="12.25" style="fill:rgb(64,55,105);stroke:rgb(42,37,69);stroke-width:20.99px;stroke-linecap:round;"/>
            </g>
        </g>
        <g transform="matrix(1,0,0,1,0.5,0)">
            <path d="M226.174,311.174L280.174,310.674" style="fill:none;stroke:rgb(190,153,128);stroke-width:23px;stroke-linecap:round;"/>
        </g>
    </g>
    <g id="women02">
        <path d="M179.818,433.759C171.525,361.535 178.628,291.235 189.884,221.455L250.281,97.458C353.66,141.974 340.445,288.887 339.046,428.268C347.706,426.375 364.525,388.782 382.971,344.079L390.291,217.337C379.586,95.983 328.709,51.033 255.771,48.043C195.752,45.583 125.377,107.679 122.624,215.049L129.029,352.772C147.327,393.446 165.197,429.847 179.818,433.759Z" style="fill:rgb(107,75,53);"/>
        <path d="M301.984,493.24C270.054,469.06 242.861,429.878 218.252,382.513L210.016,409.966L187.596,410.424L189.884,441.995C180.454,443.572 168.353,436.604 152.822,418.66C126.132,420.583 99.441,442.512 72.751,485.92C116.769,512.898 211.818,500.419 301.984,493.24Z" style="fill:rgb(58,100,59);stroke:rgb(70,125,72);stroke-width:1px;stroke-miterlimit:2;"/>
        <path d="M297.866,384.801C282.824,389.023 272.643,408.639 264.922,436.046C278.655,459.403 296.334,476.443 316.168,490.038C380.257,499.812 401.114,499.774 428.462,493.628C414.162,461.153 391.307,434.559 364.211,410.881C356.317,424.802 347.275,437.412 330.81,441.537L332.64,408.593L305.187,407.221L297.866,384.801Z" style="fill:rgb(58,100,59);stroke:rgb(70,125,72);stroke-width:1px;stroke-miterlimit:2;"/>
    </g>
</svg>
